<?xml version="1.0" encoding="UTF-8" standalone="no"?>
<svg
   xmlns:dc="http://purl.org/dc/elements/1.1/"
   xmlns:cc="http://creativecommons.org/ns#"
   xmlns:rdf="http://www.w3.org/1999/02/22-rdf-syntax-ns#"
   xmlns:svg="http://www.w3.org/2000/svg"
   xmlns="http://www.w3.org/2000/svg"
   xmlns:sodipodi="http://sodipodi.sourceforge.net/DTD/sodipodi-0.dtd"
   xmlns:inkscape="http://www.inkscape.org/namespaces/inkscape"
   width="72"
   height="72"
   viewBox="0 0 19.049999 19.05"
   version="1.1"
   id="svg2970"
   inkscape:version="1.0.1 (c497b03c, 2020-09-10)"
   sodipodi:docname="PLogoFull.svg">
  <defs
     id="defs2964">
    <marker
       style="overflow:visible"
       id="Arrow1Lstart"
       refX="0.0"
       refY="0.0"
       orient="auto"
       inkscape:stockid="Arrow1Lstart"
       inkscape:isstock="true">
      <path
         transform="scale(0.8) translate(12.5,0)"
         style="fill-rule:evenodd;stroke:#000000;stroke-width:1.0pt"
         d="M 0.0,0.0 L 5.0,-5.0 L -12.5,0.0 L 5.0,5.0 L 0.0,0.0 z "
         id="path4301" />
    </marker>
  </defs>
  <sodipodi:namedview
     id="base"
     pagecolor="#ffffff"
     bordercolor="#666666"
     borderopacity="1.0"
     inkscape:pageopacity="0.0"
     inkscape:pageshadow="2"
     inkscape:zoom="7.6413061"
     inkscape:cx="47.589726"
     inkscape:cy="48.751456"
     inkscape:document-units="mm"
     inkscape:current-layer="layer1"
     inkscape:document-rotation="0"
     showgrid="false"
     units="px"
     inkscape:window-width="1792"
     inkscape:window-height="995"
     inkscape:window-x="0"
     inkscape:window-y="23"
     inkscape:window-maximized="0" />
  <metadata
     id="metadata2967">
    <rdf:RDF>
      <cc:Work
         rdf:about="">
        <dc:format>image/svg+xml</dc:format>
        <dc:type
           rdf:resource="http://purl.org/dc/dcmitype/StillImage" />
        <dc:title />
      </cc:Work>
    </rdf:RDF>
  </metadata>
  <g
     inkscape:label="레이어 1"
     inkscape:groupmode="layer"
     id="layer1">
    <g
       id="g949"
       inkscape:export-xdpi="96"
       inkscape:export-ydpi="96">
      <rect
         style="fill:#ffffff;stroke:#ffaaaa;stroke-width:0.941829;stroke-linejoin:miter;stroke-miterlimit:4;stroke-dasharray:none;stroke-opacity:1;fill-opacity:1"
         id="rect4299"
         width="17.843588"
         height="17.843588"
         x="0.60320616"
         y="0.60320616"
         ry="4.7312679" />
      <g
         id="g1263"
         transform="matrix(0.22401719,0,0,-0.22635054,6.9863903,11.434988)"
         style="stroke:#000000;stroke-opacity:1;stroke-width:0.55510938;stroke-miterlimit:4;stroke-dasharray:none">
        <path
           d="M 0,0 C 0,8.741 4.751,16.37 11.811,20.455 8.337,22.466 4.305,23.622 0,23.622 -13.047,23.622 -23.622,13.046 -23.622,0 c 0,-13.046 10.575,-23.622 23.622,-23.622 4.305,0 8.337,1.158 11.811,3.167 C 4.751,-16.37 0,-8.743 0,0"
           style="fill:#30a8e1;fill-opacity:1;fill-rule:nonzero;stroke:#000000;stroke-opacity:1;stroke-width:0.55510938;stroke-miterlimit:4;stroke-dasharray:none"
           id="path1265" />
      </g>
      <g
         id="g1267"
         transform="matrix(0.22401719,0,0,-0.22635054,12.278371,6.0881357)"
         style="stroke:#000000;stroke-opacity:1;stroke-width:0.55510938;stroke-miterlimit:4;stroke-dasharray:none">
        <path
           d="M 0,0 C -4.307,0 -8.337,-1.156 -11.813,-3.167 -4.753,-7.252 0,-14.881 0,-23.622 c 0,-8.743 -4.753,-16.37 -11.813,-20.455 3.476,-2.009 7.506,-3.167 11.813,-3.167 13.045,0 23.62,10.576 23.62,23.622 C 23.62,-10.576 13.045,0 0,0"
           style="fill:#ed798d;fill-opacity:1;fill-rule:nonzero;stroke:#000000;stroke-opacity:1;stroke-width:0.55510938;stroke-miterlimit:4;stroke-dasharray:none"
           id="path1269" />
      </g>
      <g
         id="g1271"
         transform="matrix(0.22401719,0,0,-0.22635054,12.278371,11.434988)"
         style="stroke:#000000;stroke-opacity:1;stroke-width:0.55510938;stroke-miterlimit:4;stroke-dasharray:none">
        <path
           d="M 0,0 C 0,8.741 -4.753,16.37 -11.813,20.455 -18.872,16.37 -23.623,8.741 -23.623,0 c 0,-8.743 4.751,-16.37 11.81,-20.455 C -4.753,-16.37 0,-8.743 0,0"
           style="fill:#6879ba;fill-opacity:1;fill-rule:nonzero;stroke:#000000;stroke-opacity:1;stroke-width:0.55510938;stroke-miterlimit:4;stroke-dasharray:none"
           id="path1273" />
      </g>
      <g
         id="g1275"
         transform="matrix(0.22401719,0,0,-0.22635054,13.075754,2.05681)"
         style="stroke:#000000;stroke-opacity:1;stroke-width:0.55510938;stroke-miterlimit:4;stroke-dasharray:none">
        <path
           d="m 0,0 c -3.98,1.062 -8.4,0.035 -11.522,-3.086 -3.124,-3.121 -4.148,-7.543 -3.086,-11.522 3.979,-1.062 8.399,-0.035 11.52,3.087 C 0.035,-8.402 1.062,-3.979 0,0"
           style="fill:#6879ba;fill-opacity:1;fill-rule:nonzero;stroke:#000000;stroke-opacity:1;stroke-width:0.55510938;stroke-miterlimit:4;stroke-dasharray:none"
           id="path1277" />
      </g>
      <g
         id="g1279"
         transform="matrix(0.22401719,0,0,-0.22635054,7.4878079,3.4318215)"
         style="stroke:#000000;stroke-opacity:1;stroke-width:0.55510938;stroke-miterlimit:4;stroke-dasharray:none">
        <path
           d="m 0,0 c -0.632,-2.37 -0.02,-5 1.841,-6.858 1.855,-1.86 4.49,-2.473 6.858,-1.841 0.633,2.371 0.021,5.004 -1.837,6.862 C 5.003,0.024 2.372,0.633 0,0"
           style="fill:#6879ba;fill-opacity:1;fill-rule:nonzero;stroke:#000000;stroke-opacity:1;stroke-width:0.55510938;stroke-miterlimit:4;stroke-dasharray:none"
           id="path1281" />
      </g>
    </g>
  </g>
</svg>
