<?xml version="1.0" encoding="utf-8"?>
<!-- Generator: Adobe Illustrator 25.2.2, SVG Export Plug-In . SVG Version: 6.00 Build 0)  -->
<svg version="1.1" id="Capa_1" xmlns="http://www.w3.org/2000/svg" xmlns:xlink="http://www.w3.org/1999/xlink" x="0px" y="0px"
	 viewBox="0 0 1133.9 1133.9" style="enable-background:new 0 0 1133.9 1133.9;" xml:space="preserve">
<style type="text/css">
	.st0{fill:#FFFFFF;}
	.st1{fill:#10BAFC;}
	.st2{fill:#F4C70C;}
	.st3{fill:#303030;}
	.st4{opacity:0.4;}
	.st5{fill:#4C4C4C;}
	.st6{fill:#F94E73;}
</style>
<g>
	<g>
		<path class="st0" d="M820.7,736.3c-20.3,0-41.1,3.3-60.7,9.6c-10.6-20.1-16.2-41.1-16.8-62c0.6-23.9,7.3-47.1,20-68.9
			c18.7,5.6,38.4,8.6,57.5,8.6c109.6,0,198.8-89.2,198.8-198.8S930.3,226,820.7,226s-198.8,89.2-198.8,198.8
			c0,21.6,3.7,43.6,10.7,64.2c-21,11.6-43,17.8-65,18.3c-22.8-0.5-45.1-6.7-66.3-18.6c7-20.6,10.6-42.5,10.6-64.1
			c0-109.6-89.2-198.8-198.8-198.8s-198.8,89.2-198.8,198.8c0,109.6,89.2,198.8,198.8,198.8c19.3,0,39-3,57.8-8.6
			c12.7,21.9,19.5,44.9,20.1,68c-0.5,21.7-6.2,42.9-16.8,63.1c-19.8-6.4-40.7-9.7-61.1-9.7c-109.6,0-198.8,89.2-198.8,198.8
			s89.2,198.8,198.8,198.8S512,1044.7,512,935.1c0-19.4-3-39.3-8.8-58.2c20.4-11,41.8-16.9,63.8-17.6c22,0.6,43.4,6.4,63.7,17.4
			c-5.8,18.9-8.9,38.9-8.9,58.5c0,109.6,89.2,198.8,198.8,198.8c53.2,0,103.3-20.8,140.8-58.4c37.6-37.6,58.2-87.4,58-140.3
			c0.1-53-20.5-102.9-58-140.4C923.7,757.1,873.8,736.3,820.7,736.3z"/>
		<path class="st0" d="M455.9,234.3h222c25.7,0,48.5-15.4,58.3-39.2c9.7-23.8,4.1-50.8-14.3-68.7l-111-108.4
			C599.1,6.4,583.4,0,566.9,0c-16.5,0-32.1,6.4-44,17.9l-111,108.4c-18.4,18-24,44.9-14.3,68.7C407.3,218.9,430.2,234.3,455.9,234.3
			z"/>
	</g>
	<g>
		<g>
			<g>
				<path class="st3" d="M828.5,872.8l-57.6-55.6c-40.2-40.3-61.1-85.3-62.1-133.8c1.1-48.7,22.1-93.8,62.3-134l58.9-63.1
					c13.5-1.9,25.9-8.1,35.3-17.7c11.8-11.9,18.4-27.6,18.4-44.2c0-16.7-6.5-32.4-18.4-44.3c-11.9-11.9-27.6-18.4-44.3-18.4
					c-16.7,0-32.4,6.5-44.3,18.4c-10.6,10.6-16.9,24.5-17.9,39.4l-57.9,60.1c-40.3,40.2-85.3,61.1-133.8,62.1
					c-48.5-1.1-93.5-22-133.9-62.1l-57.9-60.1c-1.1-14.8-7.4-28.6-17.8-39.2l-0.1-0.1c-11.9-11.9-27.6-18.4-44.3-18.4
					c-16.7,0-32.4,6.5-44.3,18.4c-11.8,11.8-18.3,27.5-18.3,44.3s6.5,32.5,18.3,44.3c9.6,9.6,22,15.8,35.2,17.6l58.5,62.6l0.5,0.5
					c40.3,40.3,61.2,85.4,62.3,133.9c-1.1,48.5-22,93.5-62.2,133.9l-57.6,55.6c-13.9,1.7-26.8,7.9-36.7,17.8
					c-11.9,11.9-18.4,27.6-18.4,44.3c0,16.7,6.5,32.4,18.4,44.3c11.9,11.9,27.6,18.4,44.3,18.4c16.7,0,32.4-6.5,44.3-18.4
					c10.1-10.1,16.4-23.4,17.8-37.8l57.4-53.6l0.5-0.5c40.3-40.3,85.3-61.3,134-62.5c48.6,1.1,93.6,22.1,133.9,62.4l57.8,54
					c1.4,14.3,7.6,27.6,17.8,37.7c11.7,11.9,27.4,18.4,44.1,18.5l0.2,0c16.7,0,32.5-6.5,44.3-18.4c11.8-11.8,18.3-27.5,18.3-44.3
					c0-16.7-6.5-32.5-18.4-44.3C855.2,880.6,842.3,874.4,828.5,872.8z"/>
				<g>
					<g>
						<path class="st2" d="M329.5,424.7c0,9.1-7.4,16.5-16.5,16.5c-9.1,0-16.5-7.4-16.5-16.5s7.4-16.5,16.5-16.5
							C322,408.2,329.5,415.4,329.5,424.7z"/>
						<path class="st2" d="M313,448.7c-13.3,0-24.1-10.9-24.1-24.1s10.9-24.1,24.1-24.1c13.3,0,24.1,10.9,24.1,24.1
							C336.9,438,326.2,448.7,313,448.7z M313,415.6c-4.9,0-8.9,4-8.9,8.9s4,8.9,8.9,8.9c4.9,0,8.9-4,8.9-8.9
							C321.9,419.6,317.8,415.6,313,415.6z"/>
					</g>
				</g>
				<g>
					<g>
						<path class="st2" d="M837.4,424.7c0,9.1-7.4,16.5-16.5,16.5s-16.5-7.4-16.5-16.5s7.4-16.5,16.5-16.5S837.4,415.4,837.4,424.7z
							"/>
						<path class="st2" d="M820.7,448.7c-13.3,0-24.1-10.9-24.1-24.1s10.9-24.1,24.1-24.1c13.3,0,24.1,10.9,24.1,24.1
							C844.9,438,834.1,448.7,820.7,448.7z M820.7,415.6c-4.9,0-8.9,4-8.9,8.9s4,8.9,8.9,8.9s8.9-4,8.9-8.9
							C829.8,419.6,825.8,415.6,820.7,415.6z"/>
					</g>
				</g>
				<g>
					<g>
						<path class="st2" d="M329.5,935.1c0,9.1-7.4,16.5-16.5,16.5c-9.1,0-16.5-7.4-16.5-16.5c0-9.3,7.4-16.5,16.5-16.5
							S329.5,925.9,329.5,935.1z"/>
						<path class="st2" d="M313,959.1c-13.3,0-24.1-10.7-24.1-24.1c0-13.3,10.9-24.1,24.1-24.1c13.3,0,24.1,10.9,24.1,24.1
							C336.9,948.4,326.2,959.1,313,959.1z M313,926.1c-4.9,0-8.9,4-8.9,9.1c0,4.9,4,8.9,8.9,8.9c4.9,0,8.9-4,8.9-8.9
							C321.9,930.1,317.8,926.1,313,926.1z"/>
					</g>
				</g>
				<g>
					<g>
						<path class="st2" d="M837.4,935.1c0,9.1-7.4,16.5-16.5,16.5s-16.5-7.4-16.5-16.5c0-9.3,7.4-16.5,16.5-16.5
							C830,918.6,837.4,925.9,837.4,935.1z"/>
						<path class="st2" d="M820.7,959.1c-13.3,0-24.1-10.7-24.1-24.1c0-13.3,10.9-24.1,24.1-24.1c13.3,0,24.1,10.9,24.1,24.1
							C844.9,948.4,834.1,959.1,820.7,959.1z M820.7,926.1c-4.9,0-8.9,4-8.9,9.1c0,4.9,4,8.9,8.9,8.9s8.9-4,8.9-8.9
							C829.8,930.1,825.8,926.1,820.7,926.1z"/>
					</g>
				</g>
				<circle class="st3" cx="313" cy="424.7" r="8.7"/>
				<circle class="st3" cx="821.2" cy="424.7" r="8.7"/>
				<circle class="st3" cx="313" cy="935.1" r="8.7"/>
				<circle class="st3" cx="820.7" cy="935.1" r="8.7"/>
				<g>
					<g class="st4">
						<circle class="st5" cx="313.2" cy="424.7" r="139.2"/>
						<g>
							<path d="M313.2,569.9c-80.1,0-145.2-65.2-145.2-145.2s65.2-145.2,145.2-145.2s145.2,65.2,145.2,145.2
								S393.2,569.9,313.2,569.9z M313.2,291.7c-73.4,0-133,59.7-133,133s59.6,133,133,133s133-59.7,133-133
								S386.5,291.7,313.2,291.7z"/>
							<path d="M313.2,577.1c-84,0-152.4-68.4-152.4-152.4c0-84,68.4-152.4,152.4-152.4c84,0,152.4,68.4,152.4,152.4
								C465.6,508.7,397.2,577.1,313.2,577.1z M313.2,298.8c-69.4,0-125.9,56.5-125.9,125.9s56.5,125.9,125.9,125.9
								S439,494.1,439,424.7S382.6,298.8,313.2,298.8z"/>
						</g>
					</g>
				</g>
				<g>
					<g class="st4">
						<circle class="st5" cx="820.7" cy="424.7" r="139.2"/>
						<g>
							<path d="M820.7,569.9c-80.1,0-145.2-65.2-145.2-145.2s65.2-145.2,145.2-145.2s145.1,65.2,145.1,145.2
								S900.9,569.9,820.7,569.9z M820.7,291.7c-73.4,0-133,59.7-133,133s59.6,133,133,133s133-59.7,133-133
								S894.2,291.7,820.7,291.7z"/>
							<path d="M820.7,577.1c-84,0-152.4-68.4-152.4-152.4c0-84,68.4-152.4,152.4-152.4c84,0,152.3,68.4,152.3,152.4
								C973,508.7,904.7,577.1,820.7,577.1z M820.7,298.8c-69.4,0-125.9,56.5-125.9,125.9s56.5,125.9,125.9,125.9
								s125.9-56.5,125.9-125.9S890.1,298.8,820.7,298.8z"/>
						</g>
					</g>
				</g>
				<g>
					<g class="st4">
						<circle class="st5" cx="313.2" cy="935.1" r="139.2"/>
						<g>
							<path d="M313.2,1080.4c-80.1,0-145.2-65.2-145.2-145.2s65.2-145.2,145.2-145.2s145.2,65.2,145.2,145.2
								S393.2,1080.4,313.2,1080.4z M313.2,802.1c-73.4,0-133,59.7-133,133s59.6,133.1,133,133.1s133-59.7,133-133
								S386.5,802.1,313.2,802.1z"/>
							<path d="M313.2,1087.5c-84,0-152.4-68.4-152.4-152.4s68.4-152.4,152.4-152.4c84,0,152.4,68.4,152.4,152.4
								S397.2,1087.5,313.2,1087.5z M313.2,809.3c-69.4,0-125.9,56.5-125.9,125.9c0,69.5,56.5,126,125.9,126S439,1004.6,439,935.2
								C439,865.8,382.6,809.3,313.2,809.3z"/>
						</g>
					</g>
				</g>
				<g>
					<g class="st4">
						<circle class="st5" cx="820.7" cy="935.1" r="139.2"/>
						<g>
							<path d="M820.7,1080.4c-80.1,0-145.2-65.2-145.2-145.2s65.2-145.2,145.2-145.2s145.1,65.2,145.1,145.2
								C966.1,1015.2,900.9,1080.4,820.7,1080.4z M820.7,802.1c-73.4,0-133,59.7-133,133s59.6,133.1,133,133.1s133-59.7,133-133
								S894.2,802.1,820.7,802.1z"/>
							<path d="M820.7,1087.5c-84,0-152.4-68.4-152.4-152.4s68.4-152.4,152.4-152.4c84,0,152.3,68.4,152.3,152.4
								c0.1,40.6-15.7,78.8-44.4,107.6C899.8,1071.6,861.5,1087.5,820.7,1087.5z M820.7,809.3c-69.4,0-125.9,56.5-125.9,125.9
								c0,69.5,56.5,126,125.9,126s125.9-56.5,125.9-125.9C946.6,865.8,890.1,809.3,820.7,809.3z"/>
						</g>
					</g>
				</g>
			</g>
		</g>
		<g>
			<path class="st6" d="M689.9,159.1l-111-108.4c-6.6-6.5-17.3-6.5-23.9,0L444,159.1c-5,4.9-6.5,12.3-3.9,18.7
				c2.6,6.4,8.9,10.7,15.8,10.7h222c7,0,13.2-4.2,15.8-10.7C696.4,171.4,694.8,164,689.9,159.1z"/>
		</g>
	</g>
</g>
</svg>
